<svg width="24" height="24" viewBox="0 0 24 24" fill="none" xmlns="http://www.w3.org/2000/svg">
<path fill-rule="evenodd" clip-rule="evenodd" d="M10.4003 1.50058C10.4003 0.727382 9.77353 0.100586 9.00033 0.100586C8.22714 0.100586 7.60034 0.727382 7.60034 1.50058L7.60034 3.20017L1.39999 3.20017C0.626797 3.20017 0 3.82697 0 4.60016C0 5.37336 0.626797 6.00016 1.39999 6.00016L3.53504 6.00016L3.56178 6.19273C3.97044 9.13513 5.10129 11.6027 6.76834 13.5166C5.77129 14.1541 4.653 14.6256 3.44595 14.927C2.69578 15.1143 2.23948 15.8742 2.42677 16.6244C2.61407 17.3745 3.37403 17.8308 4.1242 17.6436C5.87988 17.2052 7.49188 16.4692 8.89262 15.4558C9.19991 15.6781 9.51769 15.8873 9.84531 16.083L10.6832 16.5837C10.8806 16.7017 11.1367 16.6292 11.243 16.4252L12.1382 14.7078C12.2308 14.5302 12.1777 14.3115 12.014 14.196L11.2816 13.6795C11.1926 13.6263 11.1046 13.5719 11.0174 13.5162C12.6755 11.6126 13.8124 9.15128 14.2232 6.19331C14.2322 6.12839 14.2366 6.0639 14.2367 6.00016H16.5999C17.3731 6.00016 17.9999 5.37336 17.9999 4.60017C17.9999 3.82697 17.3731 3.20018 16.5999 3.20018L10.4003 3.20018V1.50058ZM11.4218 6.00016C11.0669 8.32032 10.1765 10.2239 8.89279 11.6923C7.61702 10.2336 6.72052 8.33543 6.36325 6.00016L11.4218 6.00016ZM11.4453 23.7841C10.7354 23.4777 10.4082 22.6539 10.7146 21.944L15.9254 9.86899C16.0406 9.48773 16.3168 9.15792 16.7111 8.98776C16.8937 8.90896 17.0839 8.87207 17.2708 8.87283C17.4577 8.87207 17.6479 8.90896 17.8305 8.98776C18.2248 9.15792 18.501 9.48773 18.6162 9.869L23.827 21.944C24.1334 22.6539 23.8063 23.4777 23.0963 23.7841C22.3864 24.0904 21.5626 23.7633 21.2562 23.0534L19.9386 20H14.6031L13.2854 23.0534C12.979 23.7633 12.1552 24.0904 11.4453 23.7841ZM18.7303 17.2L17.2708 13.8181L15.8114 17.2H18.7303Z" fill="#9958E1"/>
</svg>
