<svg width="24" height="22" viewBox="0 0 24 22" fill="none" xmlns="http://www.w3.org/2000/svg">
<path fill-rule="evenodd" clip-rule="evenodd" d="M1.5 0.200684C0.671573 0.200684 0 0.872256 0 1.70068C0 2.52911 0.671573 3.20068 1.5 3.20068L22.406 3.20068C23.2344 3.20068 23.906 2.52911 23.906 1.70068C23.906 0.872256 23.2344 0.200684 22.406 0.200684L1.5 0.200684ZM1.5 7.20068C0.671573 7.20068 0 7.87226 0 8.70068C0 9.52911 0.671573 10.2007 1.5 10.2007L16 10.2007C16.8284 10.2007 17.5 9.52911 17.5 8.70068C17.5 7.87226 16.8284 7.20068 16 7.20068L1.5 7.20068ZM1.5 14.2007C0.671573 14.2007 0 14.8723 0 15.7007C0 16.5291 0.671573 17.2007 1.5 17.2007H6.5C7.32843 17.2007 8 16.5291 8 15.7007C8 14.8723 7.32843 14.2007 6.5 14.2007L1.5 14.2007ZM23.0432 12.7329C23.5106 12.073 23.3546 11.1591 22.6947 10.6917C22.0347 10.2242 21.1208 10.3802 20.6534 11.0402L15.9619 17.6635L13.0424 14.744C12.4706 14.1722 11.5435 14.1722 10.9716 14.744C10.3998 15.3159 10.3998 16.243 10.9716 16.8148L14.791 20.6342C15.6035 21.4468 16.9518 21.3325 17.6161 20.3948L23.0432 12.7329Z" fill="#9958E1"/>
</svg>
