<svg width="24" height="24" viewBox="0 0 24 24" fill="none" xmlns="http://www.w3.org/2000/svg">
<path fill-rule="evenodd" clip-rule="evenodd" d="M7.77545 9.78658C7.02326 10.2394 6.14213 10.4999 5.20016 10.4999C2.43876 10.4999 0.200195 8.26137 0.200195 5.49997C0.200195 2.73856 2.43876 0.5 5.20016 0.5C7.96157 0.5 10.2001 2.73856 10.2001 5.49997C10.2001 6.22723 10.0449 6.91823 9.76565 7.54163L12.6366 10.0373L19.0083 4.49847L19.6179 3.96856C20.8684 2.88158 22.7632 3.01408 23.8502 4.26451L14.923 12.0248L23.851 19.7858C22.764 21.0363 20.8692 21.1688 19.6187 20.0818L19.0091 19.5519L12.6366 14.0123L9.78159 16.4942C10.0508 17.1081 10.2001 17.7866 10.2001 18.4999C10.2001 21.2613 7.96157 23.4998 5.20016 23.4998C2.43876 23.4998 0.200195 21.2613 0.200195 18.4999C0.200195 15.7385 2.43876 13.4999 5.20016 13.4999C6.15625 13.4999 7.04966 13.7683 7.80918 14.2338L10.3503 12.0248L7.77545 9.78658ZM5.20016 7.49995C6.30472 7.49995 7.20015 6.60453 7.20015 5.49997C7.20015 4.39541 6.30472 3.49998 5.20016 3.49998C4.0956 3.49998 3.20018 4.39541 3.20018 5.49997C3.20018 6.60453 4.0956 7.49995 5.20016 7.49995ZM5.20016 20.4999C6.30472 20.4999 7.20015 19.6044 7.20015 18.4999C7.20015 17.3953 6.30472 16.4999 5.20016 16.4999C4.0956 16.4999 3.20017 17.3953 3.20017 18.4999C3.20017 19.6044 4.0956 20.4999 5.20016 20.4999Z" fill="#9958E1"/>
</svg>
