<svg width="24" height="24" viewBox="0 0 24 24" fill="none" xmlns="http://www.w3.org/2000/svg">
<path fill-rule="evenodd" clip-rule="evenodd" d="M2.99998 2.99998V20.9999H6.99976V14.9999H6.90034C6.34806 14.9999 5.90035 14.5522 5.90035 13.9999V2.99998H2.99998ZM10.9003 2.99998V13.9999C10.9003 14.5522 10.4526 14.9999 9.90033 14.9999H9.79974V20.9999H13.9997V14.9999C13.4475 14.9998 12.9999 14.5521 12.9999 13.9999V2.99998H10.9003ZM16.7997 20.9999V14.9999H16.9999C17.5522 14.9999 17.9999 14.5522 17.9999 13.9999V2.99998H20.9999V20.9999H16.7997ZM1.99999 0C0.895425 0 0 0.895424 0 1.99999V21.9999C0 23.1044 0.895424 23.9998 1.99999 23.9998H21.9999C23.1044 23.9998 23.9998 23.1044 23.9998 21.9999V1.99999C23.9998 0.895425 23.1044 0 21.9999 0H1.99999Z" fill="#9958E1"/>
</svg>
