<svg width="24" height="24" viewBox="0 0 24 24" fill="none" xmlns="http://www.w3.org/2000/svg">
<path fill-rule="evenodd" clip-rule="evenodd" d="M20.6567 8.44229L15.707 3.49258C15.3164 3.10206 14.6833 3.10206 14.2928 3.49258L10.9923 6.79303L17.3562 13.157L20.6567 9.85649C21.0472 9.46597 21.0472 8.83281 20.6567 8.44229ZM3.51357 14.2718L8.87099 8.91434L15.2349 15.2783L10.7633 19.7498C10.5758 19.9374 10.3215 20.0427 10.0562 20.0427H8.60048H8.28454C8.01933 20.0427 7.76498 19.9374 7.57744 19.7498L3.51358 15.686C3.12305 15.2954 3.12305 14.6623 3.51357 14.2718ZM8.60048 23.0427H8.28454C7.22368 23.0427 6.20627 22.6213 5.45613 21.8711L1.39227 17.8073C-0.169817 16.2452 -0.16982 13.7125 1.39227 12.1505L12.1714 1.37127C13.7335 -0.190813 16.2662 -0.190816 17.8283 1.37127L22.778 6.32099C24.3401 7.88307 24.3401 10.4157 22.778 11.9778L14.7131 20.0427H22.4004C23.2288 20.0427 23.9004 20.7143 23.9004 21.5427C23.9004 22.3711 23.2288 23.0427 22.4004 23.0427L10.0562 23.0427H8.60048Z" fill="#9958E1"/>
</svg>
