<svg width="24" height="24" viewBox="0 0 24 24" fill="none" xmlns="http://www.w3.org/2000/svg">
<g clip-path="url(#clip0_2018_19464)">
<path fill-rule="evenodd" clip-rule="evenodd" d="M15.3271 1.53851C16.7236 0.152065 18.9907 0.15409 20.3847 1.54304L22.4606 3.6114C23.8515 4.99714 23.8457 7.2382 22.4478 8.61691L19.5943 11.4313C19.0635 11.9548 18.2057 11.9529 17.6772 11.427C17.1474 10.8999 17.1493 10.046 17.6814 9.52119L17.8922 9.31327L14.6089 6.06064L3.24762 17.3398C3.22563 17.3616 3.21371 17.3907 3.21371 17.4205L3.21365 20.5864L6.41267 20.5863C6.4446 20.5863 6.4748 20.5739 6.49687 20.5524L7.60826 19.4368L7.60982 19.4353C8.14065 18.9117 8.99846 18.9136 9.52698 19.4395C10.0565 19.9664 10.0549 20.8196 9.52359 21.3445L9.52273 21.3454L8.41188 22.4604L8.41033 22.4619C7.87932 22.9856 7.16102 23.2793 6.41272 23.2793L2.152 23.2793C1.24184 23.2794 0.499984 22.5478 0.5 21.6404L0.500074 17.4205C0.500088 16.6759 0.798265 15.9623 1.32842 15.436L15.3271 1.53851ZM4.3696 0.836339C4.4759 0.394032 5.10768 0.394024 5.21398 0.836337L5.45143 1.82434C5.76424 3.1259 6.82003 4.12594 8.14988 4.37608L8.68115 4.47601C9.15256 4.56468 9.15256 5.23711 8.68115 5.32579L8.14988 5.42572C6.82003 5.67586 5.76424 6.6759 5.45143 7.97746L5.21398 8.96546C5.10768 9.40777 4.47591 9.40777 4.3696 8.96546L4.13218 7.97756C3.81936 6.67595 2.76351 5.6759 1.4336 5.42579L0.901856 5.32579C0.430424 5.23713 0.430424 4.56467 0.901856 4.47601L1.4336 4.37601C2.76351 4.1259 3.81936 3.12585 4.13218 1.82425L4.3696 0.836339ZM18.4621 3.44344C18.1273 3.10989 17.5817 3.1094 17.2463 3.44235L16.5274 4.15605L19.817 7.41492L20.5349 6.70685C20.869 6.37734 20.8704 5.84296 20.538 5.51179L18.4621 3.44344Z" fill="#9958E1"/>
<path fill-rule="evenodd" clip-rule="evenodd" d="M14.2147 10.5263C14.3411 10.0004 15.0929 10.0004 15.2193 10.5263L15.6513 12.3235C16.1144 14.2507 17.6774 15.7305 19.645 16.1006L20.7625 16.3108C21.3233 16.4163 21.3233 17.2154 20.7625 17.3209L19.645 17.5311C17.6774 17.9012 16.1144 19.3811 15.6513 21.3082L15.2193 23.1055C15.0929 23.6314 14.3411 23.6314 14.2147 23.1055L13.7828 21.3084C13.3196 19.3811 11.7566 17.9013 9.78889 17.5312L8.67058 17.3209C8.1098 17.2155 8.10981 16.4163 8.67058 16.3108L9.78889 16.1005C11.7566 15.7305 13.3196 14.2506 13.7828 12.3234L14.2147 10.5263Z" fill="#9958E1"/>
</g>
<defs>
<clipPath id="clip0_2018_19464">
<rect width="23.9998" height="23.9998" fill="white"/>
</clipPath>
</defs>
</svg>
